<svg width="18" height="22" viewBox="0 0 18 22" fill="none" xmlns="http://www.w3.org/2000/svg">
<path d="M16.2692 19.1251C15.3701 20.4684 14.4167 21.7792 12.9651 21.8009C11.5134 21.8334 11.0476 20.9451 9.40091 20.9451C7.74341 20.9451 7.23425 21.7792 5.85841 21.8334C4.43925 21.8876 3.36675 20.4034 2.45675 19.0926C0.604246 16.4167 -0.814921 11.4876 1.09175 8.17258C2.03425 6.52592 3.72425 5.48592 5.55508 5.45342C6.94175 5.43175 8.26341 6.39591 9.11925 6.39591C9.96425 6.39591 11.5676 5.23675 13.2467 5.41008C13.9509 5.44258 15.9226 5.69175 17.1901 7.55508C17.0926 7.62008 14.8392 8.94175 14.8609 11.6826C14.8934 14.9542 17.7317 16.0484 17.7642 16.0592C17.7317 16.1351 17.3092 17.6192 16.2692 19.1251ZM10.0834 1.79175C10.8742 0.892581 12.1851 0.210081 13.2684 0.166748C13.4092 1.43425 12.9001 2.71258 12.1417 3.62258C11.3942 4.54341 10.1592 5.25842 8.94591 5.16092C8.78341 3.91508 9.39008 2.61508 10.0834 1.79175Z" fill="#292926"/>
</svg>
