<svg width="14" height="14" viewBox="0 0 14 14" fill="none" xmlns="http://www.w3.org/2000/svg">
<path fill-rule="evenodd" clip-rule="evenodd" d="M7.0239 7.17272e-05L7.0001 3.06131e-09L6.97629 7.17272e-05C6.56228 0.00574338 6.22803 0.339989 6.22236 0.754L6.22229 0.777805L6.22229 6.22196L0.777805 6.22196L0.754 6.22203C0.339989 6.2277 0.00574337 6.56195 7.17211e-05 6.97596L-3.06161e-09 6.99976L7.17211e-05 7.02357C0.00574337 7.43758 0.339989 7.77182 0.754 7.77749L0.777805 7.77757L6.22229 7.77757L6.22229 13.2227L6.22236 13.2465C6.22803 13.6605 6.56228 13.9947 6.97629 14.0004L7.0001 14.0005L7.0239 14.0004C7.43791 13.9947 7.77216 13.6605 7.77783 13.2465L7.7779 13.2227L7.7779 7.77757L13.2227 7.77757L13.2465 7.77749C13.6605 7.77182 13.9947 7.43758 14.0004 7.02357L14.0005 6.99976L14.0004 6.97596C13.9947 6.56195 13.6605 6.2277 13.2465 6.22203L13.2227 6.22196L7.7779 6.22196L7.7779 0.777805L7.77783 0.754C7.77216 0.339989 7.43791 0.00574338 7.0239 7.17272e-05Z" fill="#F4F4EC"/>
</svg>
