<svg width="22" height="22" viewBox="0 0 22 22" fill="none" xmlns="http://www.w3.org/2000/svg">
<path d="M8.58516 9.69775C8.58516 9.394 8.33891 9.14775 8.03516 9.14775C7.7314 9.14775 7.48516 9.394 7.48516 9.69775H8.58516ZM7.48516 17.1102C7.48516 17.4139 7.7314 17.6602 8.03516 17.6602C8.33891 17.6602 8.58516 17.4139 8.58516 17.1102H7.48516ZM7.48516 9.69775V17.1102H8.58516V9.69775H7.48516Z" fill="#27272A"/>
<path d="M11.55 9.69775C11.55 9.394 11.3038 9.14775 11 9.14775C10.6962 9.14775 10.45 9.394 10.45 9.69775H11.55ZM10.45 17.1102C10.45 17.4139 10.6962 17.6602 11 17.6602C11.3038 17.6602 11.55 17.4139 11.55 17.1102H10.45ZM10.45 9.69775V17.1102H11.55V9.69775H10.45Z" fill="#27272A"/>
<path d="M14.5151 9.69775C14.5151 9.394 14.2688 9.14775 13.9651 9.14775C13.6613 9.14775 13.4151 9.394 13.4151 9.69775H14.5151ZM13.4151 17.1102C13.4151 17.4139 13.6613 17.6602 13.9651 17.6602C14.2688 17.6602 14.5151 17.4139 14.5151 17.1102H13.4151ZM13.4151 9.69775V17.1102H14.5151V9.69775H13.4151Z" fill="#27272A"/>
<path d="M3.64351 5.27393C3.64351 4.47311 4.29269 3.82393 5.09351 3.82393H16.9066C17.7074 3.82393 18.3566 4.47311 18.3566 5.27393V6.72137C18.3566 6.9699 18.1552 7.17137 17.9066 7.17137H4.09351C3.84498 7.17137 3.64351 6.9699 3.64351 6.72137V5.27393Z" stroke="#27272A" stroke-width="1.1"/>
<path d="M8.58516 3.1001C8.58516 2.29928 9.23434 1.6501 10.0352 1.6501H11.9651C12.7659 1.6501 13.4151 2.29929 13.4151 3.1001V3.81156H8.58516V3.1001Z" stroke="#27272A" stroke-width="1.1"/>
<path d="M5.48603 18.6727L4.67247 7.28291H17.3276L16.514 18.6727C16.4598 19.4315 15.8284 20.0194 15.0677 20.0194H6.93235C6.17162 20.0194 5.54023 19.4315 5.48603 18.6727Z" stroke="#27272A" stroke-width="1.1"/>
</svg>
